<?xml version="1.0" encoding="utf-8"?>
<!-- Generator: Adobe Illustrator 26.0.3, SVG Export Plug-In . SVG Version: 6.00 Build 0)  -->
<svg version="1.1" id="Layer_1" xmlns="http://www.w3.org/2000/svg" xmlns:xlink="http://www.w3.org/1999/xlink" x="0px" y="0px"
	 viewBox="0 0 1417.32 1417.32" style="enable-background:new 0 0 1417.32 1417.32;" xml:space="preserve">
<style type="text/css">
	.st0{fill:#E3915E;}
	.st1{fill:none;}
</style>
<g>
	<path class="st0" d="M706.4,1133.77c-234.45,0-425.2-190.74-425.2-425.2c0-234.45,190.74-425.2,425.2-425.2
		s425.19,190.74,425.19,425.2C1131.59,943.03,940.85,1133.77,706.4,1133.77z M706.4,306.85c-221.51,0-401.73,180.22-401.73,401.73
		s180.22,401.73,401.73,401.73c221.51,0,401.73-180.22,401.73-401.73S927.91,306.85,706.4,306.85z"/>
</g>
<path class="st0" d="M850.13,694.78c-0.69,10.93-1.36,21.42-2.01,31.88c4.18,0,8.41,0.52,12.47-0.11c8.05-1.24,13.6-8.05,13.59-15.8
	c-0.01-7.74-5.64-14.61-13.59-15.89C857.2,694.33,853.65,694.78,850.13,694.78 M620.97,774.15c-5.33,15.08-15.45,23.01-29.37,27.03
	c-6.31,1.82-10.46,6.84-12.24,13.16c-2.42,8.57-1.44,9.46,7.08,8.37c15.63-1.99,26.45-11,33.14-24.97
	C623.01,790.59,623.81,783.02,620.97,774.15 M563.2,810.41c5.21-14.38,14.38-22.91,28.11-26.52c1.54-0.4,3.01-1.21,4.39-2.04
	c7.06-4.21,11.29-12.85,9.67-19.98c-14.61-1.55-25.98,4.56-34.93,15.53C562.82,786.74,559.29,797.3,563.2,810.41 M838.52,763.26
	c10.12-0.49,19.72,0,28.97-1.6c23.03-3.98,39.25-21.98,42.11-46.29c2.26-19.17-7.7-40.67-28.75-51.19
	c-9.8-4.9-20.19-6.14-30.87-5.11v19.57c4.69,0,9.23-0.65,13.53,0.11c17.15,3.02,28.45,18.26,26.83,35.56
	c-1.52,16.23-15.75,28.85-32.69,28.99c-4.44,0.04-8.87,0-13.07,0C842.56,749.97,840.68,756.15,838.52,763.26 M527.85,839.36
	c0.22,1.05,0.29,1.71,0.5,2.32c4.29,12,15.79,20.1,29.08,20.28c10.29,0.13,20.59,0.02,30.88,0.04c6.42,0.01,9.16,2.56,9.61,8.85
	c0.97,13.65,11.08,23.57,24.69,23.6c51.72,0.11,103.46,0.1,155.19,0.01c13.67-0.02,23.82-9.81,24.86-23.43
	c0.5-6.58,3.14-9.02,9.85-9.03c10.03-0.01,20.05,0.03,30.07-0.01c7.25-0.04,13.88-2.1,19.63-6.58c5.24-4.09,8.82-9.3,10.69-16.04
	H527.85z M510.14,828.67c2.18-4.43,5.73-5.89,10.61-5.76c9.99,0.27,19.99,0.08,29.14,0.08c-1.61-6.96-4.14-13.76-4.59-20.7
	c-0.93-14.34,4.75-26.68,14.18-37.28c1.9-2.14,2.17-3.84,1.25-6.48c-6.81-19.59-9.89-39.83-9.87-60.55
	c0.01-15.03-0.01-30.07,0.01-45.1c0.01-7.53,2.79-10.35,10.24-10.35c34-0.01,67.99-0.02,101.98,0.02c5.34,0,8.71,3.22,8.73,8.03
	c0.01,4.78-3.42,8.04-8.66,8.2c-1.08,0.03-2.16,0.01-3.25,0.01c-29.12,0-58.24,0-87.35,0h-4.7c-3.92,20.74,0.57,73.11,7.97,92.7
	c2.05-0.84,4.08-1.71,6.15-2.52c12.96-5.04,25.91-5.64,38.38,1.24c15.92,8.78,22.47,27.43,16.88,46.9
	c-2.39,8.33-6.55,15.69-12.26,22.19c-0.86,0.99-1.68,2.01-2.93,3.48c1.7,0.08,2.84,0.18,3.98,0.18
	c49.57,0.01,99.14,0.04,148.71-0.09c2.02-0.01,4.54-0.97,6-2.36c32.63-31.11,50.35-69.15,52.16-114.29
	c0.59-14.74,0.28-29.51,0.36-44.27c0-0.92-0.16-1.84-0.29-3.17h-4.91c-29.94,0-59.87-0.03-89.8,0.04c-4.23,0.01-7.44-1.39-9.05-5.43
	c-1.92-4.84,1.43-10.21,6.61-10.79c0.67-0.08,1.36-0.06,2.03-0.06c40.63,0.01,81.26-0.18,121.89,0.09
	c32.76,0.21,61.21,25.61,65.68,58.01c5.81,42.12-25.58,78.26-68.09,78.42c-7.72,0.03-15.44-0.07-23.16,0.09
	c-1.2,0.02-3.01,0.79-3.49,1.75c-7.61,15.05-17.09,28.8-29.04,42.09h5c24.65,0,49.3-0.01,73.95,0.01c7.02,0,9.89,2.89,9.83,9.82
	c-0.22,23.88-21.38,45.1-45.32,45.38c-8.8,0.1-17.6,0.01-26.67,0.01c-0.39,1.17-0.78,2.28-1.12,3.39
	c-5.33,17.52-20.79,29.1-39.12,29.12c-51.6,0.04-103.2,0.02-154.8,0.01c-19.52-0.01-34.52-11.12-40.26-29.74
	c-0.27-0.88-0.61-1.74-0.97-2.76c-7.97,0-15.82,0.01-23.66,0c-24.36-0.02-42.91-15.29-47.67-39.2c-0.1-0.5-0.46-0.94-0.69-1.41
	V828.67z"/>
<path class="st0" d="M702.73,494.68c6.95,4.51,7.6,9.05,2.18,15.23c-10.93,12.44-10.72,29.83,0.89,42.34
	c7.11,7.67,12.08,16.31,13.55,26.67c2.19,15.39-2,28.95-12.64,40.35c-3.56,3.81-8.52,4.01-11.96,0.83
	c-3.31-3.07-3.75-8.12-0.28-11.62c11.52-11.57,12.87-31.2-1.26-45.89c-16.98-17.66-16.86-45.25-0.57-63.49
	c1.5-1.68,3.46-2.96,5.21-4.42H702.73z"/>
<path class="st0" d="M634.22,623.49c-2.59-2.22-5.21-3.7-6.73-5.94c-2.04-2.99-1.1-6.31,1.3-8.93c4.11-4.51,6.31-9.67,6.02-15.84
	c-0.25-5.41-2.57-9.8-6.15-13.75c-11.1-12.27-13.52-26.16-6.92-41.31c1.58-3.63,4.23-6.92,6.87-9.94c3.33-3.8,8.11-3.92,11.56-0.85
	c3.33,2.97,3.7,7.95,0.48,11.65c-5.04,5.79-7.74,12.31-5.26,19.77c1.27,3.83,3.67,7.54,6.37,10.59
	c12.7,14.38,12.78,36.23-0.29,49.85C639.72,620.6,637.16,621.62,634.22,623.49"/>
<path class="st0" d="M765.28,623.51c-2.57-2.25-5.24-3.73-6.65-6c-1.94-3.14-0.97-6.49,1.55-9.29c5.16-5.74,7.49-12.47,4.92-19.85
	c-1.37-3.93-4.04-7.62-6.82-10.82c-12.3-14.16-11.94-36.26,1.05-49.57c2.33-2.39,5-3.77,8.36-2.91c3.29,0.85,5.84,3.06,6,6.38
	c0.11,2.45-0.74,5.44-2.23,7.37c-8.07,10.49-7.9,19.98,1,29.9c13.19,14.71,13.29,36.25,0.06,50.08
	C770.79,620.61,768.23,621.63,765.28,623.51"/>
<path class="st0" d="M700.1,642.58c4.7-0.08,8.25,3.33,8.29,7.97c0.04,4.58-3.56,8.24-8.11,8.23c-4.36-0.01-7.95-3.49-8.09-7.86
	C692.05,646.27,695.47,642.66,700.1,642.58"/>
<rect x="281.2" y="283.38" class="st1" width="850.39" height="850.39"/>
</svg>
