<?xml version="1.0" encoding="utf-8"?>
<!-- Generator: Adobe Illustrator 26.0.3, SVG Export Plug-In . SVG Version: 6.00 Build 0)  -->
<svg version="1.1" id="Layer_1" xmlns="http://www.w3.org/2000/svg" xmlns:xlink="http://www.w3.org/1999/xlink" x="0px" y="0px"
	 viewBox="0 0 1417.32 1417.32" style="enable-background:new 0 0 1417.32 1417.32;" xml:space="preserve">
<style type="text/css">
	.st0{fill:#E3915E;}
	.st1{fill:#FFFFFF;}
</style>
<g>
	<path class="st0" d="M708.66,1133.86c234.83,0,425.2-190.37,425.2-425.2c0-234.83-190.37-425.2-425.2-425.2
		s-425.2,190.36-425.2,425.2C283.46,943.49,473.83,1133.86,708.66,1133.86"/>
	<path class="st1" d="M635.16,622.78c-0.54,0.16-1.01,0.31-1.45,0.48l-20.75,8.31c-20.77,8.31-41.54,16.63-62.34,24.87
		c-3.28,1.3-3.55,3.69-3.55,5.82c0.04,48.1,0.04,96.2,0.04,144.3v28.48l3.04-1c0.69-0.22,1.29-0.41,1.87-0.64l20.4-8.16
		c20.29-8.11,41.26-16.51,62.05-24.73c3.44-1.36,3.72-3.73,3.72-6.05c-0.04-41.77-0.04-83.54-0.04-125.3l-0.01-41.77
		c0-0.75-0.04-1.51-0.1-2.33l-0.17-3.13L635.16,622.78z M535.08,858.97c-3.13-1.41-5.47-3.78-6.96-7.06V648.9
		c1.71-4.01,5.19-6.09,9.88-7.95c34.55-13.69,69.35-27.62,103.45-41.39c2.18-0.88,4.2-1.3,6.19-1.3c2,0,4.03,0.43,6.2,1.32
		c13.25,5.41,27.06,10.93,39.24,15.8l2.29,0.92c6.94,2.77,13.88,5.54,20.81,8.34c5.74,2.32,8.28,7.14,6.46,12.28
		c-1.41,3.99-4.69,6.36-8.79,6.37c-1.6,0-3.28-0.35-5-1.03c-9.53-3.79-19.05-7.62-28.57-11.44l-16.61-6.67
		c-0.9-0.36-1.82-0.7-2.85-1.07l-3.73-1.37l0.01,37.96c0,44.85,0,89.7-0.07,134.55c0,3.51,1.21,5.28,4.47,6.58
		c20.39,8.06,41.33,16.45,59.79,23.84l20.43,8.17c0.92,0.37,1.85,0.7,2.85,1.06l3.58,1.29V799.8c-0.01-27.2-0.01-54.39,0.01-81.58
		c0-5.81,4.08-10.36,9.3-10.36c1.33,0,2.67,0.3,3.97,0.9c3.9,1.79,5.73,4.87,5.71,9.68c-0.05,21.97-0.04,43.93-0.04,65.9l0.01,50.63
		l3.03-0.95c0.74-0.22,1.38-0.42,2-0.67l21.53-8.6c20.2-8.07,40.4-16.14,60.62-24.15c2.83-1.12,3.93-2.78,3.93-5.92
		c-0.08-41.39-0.07-82.45-0.04-120.65c0.01-5.71,4.08-10.18,9.29-10.18c1.28,0,2.58,0.28,3.83,0.83c3.9,1.72,5.8,4.62,5.82,8.89
		c0.01,7.64,0.01,15.29,0.01,22.94l-0.01,106.63c0,6.9-1.71,9.47-7.94,11.96l-108.56,43.36c-0.33,0.13-0.59,0.31-0.8,0.49h-4.31
		c-0.16-0.13-0.34-0.26-0.57-0.35l-12.65-5.06c-28.39-11.35-60.56-24.21-91.41-36.38c-0.89-0.35-1.97-0.54-3.13-0.54
		c-1.41,0-2.86,0.27-4.09,0.75c-20.05,7.87-39.02,15.48-61.74,24.61c-9.65,3.87-19.28,7.78-28.9,11.7l-13.07,5.31L535.08,858.97z"/>
	<path class="st1" d="M800.55,529.1c-18.61,0-33.78,8.15-45.09,24.22c-12.1,17.18-13.38,35.57-3.78,54.66
		c7.89,15.69,18.06,31.78,31.09,49.19c3.9,5.19,7.81,10.12,11.95,15.32l0.13,0.16c1.82,2.29,3.65,4.6,5.5,6.94l1.15,1.47l3.4-4.1
		c1.32-1.6,2.55-3.08,3.76-4.59c15.47-19.36,31.4-40.61,43.03-64.78c3.22-6.69,6.63-14.56,6.37-23.32
		c-0.85-28.7-22.07-51.74-50.46-54.79C805.22,529.23,802.85,529.1,800.55,529.1 M801.67,705.12c-2.73,0-5.39-1.39-7.7-4.03
		c-23.61-27.02-39.83-49.11-52.58-71.62c-5.51-9.74-11.49-21.43-14.04-34.32c-0.51-2.64-0.82-5.37-1.11-8.01
		c-0.14-1.25-0.28-2.51-0.43-3.76c0.94-36.95,29.37-68.29,66.14-72.75c3.13-0.38,6.31-0.57,9.44-0.57
		c36.26,0,66.81,24.63,74.27,59.9c2.9,13.69,1.29,27.31-4.9,41.63c-7.61,17.6-18.38,35.23-33.89,55.51
		c-9.1,11.89-18.83,23.53-27.41,33.8C807.14,703.67,804.45,705.12,801.67,705.12"/>
	<path class="st1" d="M801.64,572.96c-6.62,0-12.46,5.82-12.48,12.45c-0.02,6.64,5.79,12.49,12.45,12.51
		c6.65,0,12.5-5.82,12.51-12.45c0.01-3.19-1.35-6.38-3.72-8.75c-2.36-2.38-5.55-3.75-8.74-3.75H801.64z M801.63,616.92
		c-17.28,0-31.39-14.06-31.46-31.35c-0.08-17.34,13.98-31.52,31.34-31.59c17.35,0,31.53,14.06,31.61,31.35
		c0.04,8.33-3.22,16.22-9.18,22.23c-5.96,6.01-13.83,9.34-22.17,9.38H801.63z"/>
</g>
</svg>
