<?xml version="1.0" encoding="utf-8"?>
<!-- Generator: Adobe Illustrator 26.0.3, SVG Export Plug-In . SVG Version: 6.00 Build 0)  -->
<svg version="1.1" id="Layer_1" xmlns="http://www.w3.org/2000/svg" xmlns:xlink="http://www.w3.org/1999/xlink" x="0px" y="0px"
	 viewBox="0 0 1417.32 1417.32" style="enable-background:new 0 0 1417.32 1417.32;" xml:space="preserve">
<style type="text/css">
	.st0{fill:#E3915E;}
	.st1{fill:#FFFFFF;}
	.st2{fill:none;}
</style>
<path class="st0" d="M708.16,1133.91c234.83,0,425.2-190.37,425.2-425.2c0-234.83-190.37-425.2-425.2-425.2
	s-425.2,190.36-425.2,425.2C282.97,943.54,473.34,1133.91,708.16,1133.91"/>
<path class="st1" d="M708.3,917.6c115.21-0.32,209.19-94.49,208.79-209.2c-0.39-115.17-93.84-208.51-208.84-208.6
	c-115.02-0.09-209,93.87-208.96,208.93C499.34,823.84,593.48,917.92,708.3,917.6 M932.01,723.57c-0.87,6.47-1.57,12.96-2.62,19.4
	c-9.97,60.78-39.78,109.62-89.08,146.38c-30.07,22.43-64,36.24-101.17,41.06c-61.77,8.01-118.03-6.44-167.5-44.49
	c-44.7-34.38-73.11-79.68-83.16-135.19c-13.26-73.23,5.24-138.37,55.27-193.62c35.79-39.53,80.94-62.36,133.65-70.21
	c5.29-0.79,10.62-1.34,15.93-2h29.72c5.3,0.68,10.61,1.28,15.9,2.05c43.68,6.38,82.48,23.65,115.73,52.75
	c41.27,36.13,66.3,81.38,74.77,135.67c0.96,6.14,1.71,12.31,2.55,18.47V723.57z"/>
<path class="st1" d="M791.05,661.55c-0.92-13.56-4.92-26.04-9.54-38.28c-2.83-7.49-9.22-11.28-17.13-11.38
	c-7.91-0.1-14.5,3.51-17.39,10.95c-5.16,13.3-9.24,26.94-8.8,41.52c0.37,12.57,4.34,22.72,16.92,27.9c4.36,1.8,4.65,5.84,4.46,10
	c-1.9,40.44-3.76,80.88-5.6,121.32c-0.33,7.31,3.78,11.82,10.42,11.64c6.57-0.18,10.37-4.54,10.04-11.61
	c-1.87-40.44-3.7-80.88-5.71-121.32c-0.28-5.56,1.9-8.65,6.66-11.46c4.31-2.56,8.95-6.17,11.05-10.49
	C789.19,674.67,789.62,667.87,791.05,661.55 M741.42,766.83c0.89-19.64,1.74-39.27,2.71-58.91c0.14-2.87-0.56-4.62-3.16-6.35
	c-10.27-6.87-15.45-16.69-17.15-29.01c-2.62-19.02,2.15-36.75,8.61-54.1c4.95-13.33,15.41-20.7,29.63-21.5
	c15.12-0.85,27.7,6.67,33.15,20.13c5.97,14.71,10.26,29.94,9.98,46.12c-0.28,16.29-4.63,30.41-19.4,39.61
	c-1.04,0.65-1.55,2.96-1.5,4.46c0.6,16.01,1.38,32,2.09,48c1.04,23.28,2.24,46.54,3,69.82c0.42,12.74-7.89,22.41-20.52,24.96
	c-11.61,2.34-24.02-4.26-28.27-15.43c-1.16-3.03-1.74-6.52-1.63-9.76c0.68-19.35,1.63-38.7,2.49-58.04
	C741.44,766.83,741.43,766.83,741.42,766.83"/>
<path class="st1" d="M659.21,759.48c-1.05-20.21-1.98-40.43-3.24-60.63c-0.33-5.36,0.8-9.55,4.89-13.25
	c5.28-4.78,10.27-9.92,15.11-15.15c1.3-1.41,2.3-3.72,2.32-5.62c0.17-19.08,0.1-38.16,0.11-57.24c0.01-1.74-0.17-3.58,0.29-5.21
	c0.97-3.39,3.35-5.44,6.99-5.51c3.88-0.07,6.2,2.14,7.35,5.66c0.3,0.94,0.27,2.02,0.27,3.03c0.01,21.56,0.13,43.12-0.14,64.67
	c-0.03,2.58-1.55,5.64-3.33,7.62c-5.06,5.62-10.74,10.68-15.89,16.23c-1.39,1.5-2.53,3.99-2.45,5.98
	c1.21,27.63,2.64,55.26,4.02,82.89c0.67,13.38,1.51,26.75,1.95,40.14c0.52,15.69-10.4,27.24-25.37,27.24
	c-14.59-0.01-25.65-11.61-25.02-27.14c1.04-25.89,2.59-51.76,3.89-77.64c0.77-15.27,1.53-30.54,2.07-45.82
	c0.07-1.75-0.86-3.97-2.08-5.27c-5.07-5.42-10.37-10.64-15.72-15.79c-2.79-2.69-4.13-5.66-4.1-9.65
	c0.13-20.97,0.05-41.95,0.07-62.92c0.01-5.28,2.24-8.5,6.21-9.17c4.71-0.79,8.57,2.61,8.65,7.94c0.13,9.17,0.05,18.35,0.05,27.53
	c0,10.63-0.17,21.27,0.13,31.89c0.07,2.29,1.28,5,2.84,6.71c5,5.48,10.36,10.64,15.7,15.8c2.82,2.73,4.03,5.84,3.82,9.77
	c-2.2,42.02-4.31,84.05-6.47,126.06c-0.32,6.24,2.19,10.62,7.05,12.06c4.81,1.42,9.71-0.37,11.79-4.8c0.94-2,1.36-4.48,1.26-6.7
	c-0.81-18.33-1.82-36.64-2.72-54.97c-0.14-2.9-0.02-5.82-0.02-8.73C659.4,759.48,659.31,759.48,659.21,759.48"/>
<path class="st1" d="M857.47,713.39c-0.72,35.81-14.78,70.67-42.75,99.82c-3.7,3.86-8.36,4.34-11.57,1.29
	c-3.16-3-3.27-7.39,0.37-11.25c10.97-11.63,20.22-24.41,26.8-39.03c10.01-22.25,13.68-45.52,11.14-69.78
	c-2.74-26.16-12.49-49.41-28.9-69.92c-0.45-0.57-0.88-1.16-1.29-1.76c-2.99-4.38-2.68-8.56,0.8-11.25
	c3.55-2.74,7.76-2.05,11.08,2.04c2.84,3.51,5.63,7.06,8.17,10.79C848.41,649.4,857.39,678.6,857.47,713.39"/>
<path class="st1" d="M592.06,617.84c6.76-0.04,10.34,5.06,8.42,10.03c-0.67,1.74-1.8,3.32-2.87,4.88
	c-18.26,26.6-25.79,56.17-23,88.09c2.56,29.24,13.81,55.06,33.49,77.03c1.75,1.95,3.61,3.82,5.19,5.9
	c2.85,3.73,2.53,7.76-0.63,10.53c-3.14,2.74-7.47,2.76-10.54-0.74c-6.12-7-12.44-13.95-17.65-21.62
	c-16.9-24.84-25.36-52.55-25.5-82.53c-0.15-32.22,9.41-61.57,28.13-87.82C588.48,619.67,591.05,618.58,592.06,617.84"/>
<path class="st1" d="M708.7,558.73c9.8,1.36,21.47,2.77,33.07,4.66c5.48,0.89,8.19,4.85,7.19,9.06c-1.1,4.6-5.07,6.66-10.67,5.45
	c-25.33-5.44-50.27-4.17-74.8,4.28c-0.83,0.28-1.65,0.56-2.49,0.78c-4.74,1.29-8.4-0.43-9.81-4.61c-1.38-4.06,0.48-8.01,5.22-9.5
	c8.02-2.52,16.09-5.09,24.32-6.68C689.26,560.51,698.02,559.98,708.7,558.73"/>
<path class="st1" d="M633.51,633.95c-0.01-8.74-0.02-17.48,0.01-26.21c0.01-1.74,0.07-3.52,0.43-5.21c0.73-3.35,3-5.26,6.38-5.63
	c3.44-0.38,5.93,1.25,7.41,4.27c0.56,1.14,0.86,2.52,0.87,3.79c0.05,19.37,0.11,38.74-0.01,58.1c-0.03,5.53-3.64,8.69-8.54,8.12
	c-4.16-0.49-6.44-3.37-6.51-8.84C633.43,652.88,633.52,643.42,633.51,633.95"/>
<path class="st1" d="M670.99,633.95c0,8.45,0,16.89,0,25.34c0,1.02,0.03,2.04-0.02,3.06c-0.25,5.91-3.06,9.1-7.84,8.94
	c-4.51-0.16-7.25-3.46-7.28-9.1c-0.06-13.11-0.02-26.21-0.02-39.32c0-6.11-0.15-12.23,0.09-18.35c0.18-4.61,3.32-7.61,7.37-7.68
	c4.18-0.07,7.01,2.67,7.55,7.41c0.14,1.3,0.13,2.61,0.13,3.92C671,616.77,670.99,625.36,670.99,633.95"/>
<path class="st1" d="M706.79,842.91c4.6-0.22,10.26-0.4,15.91-0.8c5.59-0.39,9.43,2.23,9.79,6.91c0.33,4.28-3.09,7.97-8.42,8.1
	c-10.58,0.25-21.18,0.26-31.76,0c-5.24-0.13-8.67-3.94-8.28-8.22c0.42-4.49,4.15-7.14,9.5-6.78
	C697.59,842.39,701.65,842.61,706.79,842.91"/>
<rect x="282.97" y="283.52" class="st2" width="850.39" height="850.39"/>
</svg>
