<?xml version="1.0" encoding="utf-8"?>
<!-- Generator: Adobe Illustrator 26.0.3, SVG Export Plug-In . SVG Version: 6.00 Build 0)  -->
<svg version="1.1" id="Layer_1" xmlns="http://www.w3.org/2000/svg" xmlns:xlink="http://www.w3.org/1999/xlink" x="0px" y="0px"
	 viewBox="0 0 1417.32 1417.32" style="enable-background:new 0 0 1417.32 1417.32;" xml:space="preserve">
<style type="text/css">
	.st0{fill:#E3915E;}
</style>
<path class="st0" d="M735.67,283.22c11.41,1.63,22.86,3.14,34.24,4.93c68.91,10.86,131.79,36.32,188.05,77.76
	c9.22,6.79,11.44,16.45,5.91,24.49c-5.72,8.33-15.7,9.7-25.54,2.58c-26.54-19.26-54.93-35.11-85.33-47.35
	c-39.78-16.02-81.09-25.28-123.95-27.6c-49.94-2.7-98.85,3.1-146.29,19.03c-85.5,28.72-154.11,80.12-203.89,155.5
	c-50.4,76.33-71.32,160.75-63.16,251.65c14.79,164.49,129.58,302.72,289.96,342.53c157.73,39.15,292.65-4.76,400.15-126.83
	c48-54.5,76.08-119.84,86.47-191.7c15.23-105.24-7.46-202.06-68.82-289.46c-3.3-4.72-6.03-10.94-6.12-16.51
	c-0.12-7.03,5.19-12.19,12.24-13.99c7.51-1.91,13.78,1.13,18.11,7.2c7.06,9.9,14.02,19.91,20.42,30.26
	c32.14,52.02,51.79,108.55,59.37,169.1c24.83,198.15-88.9,384.86-276.49,453.68c-57.62,21.13-117.37,29.88-178.56,23.68
	c-169.08-17.12-288.07-104.71-358.61-258.49c-18.8-40.95-28.5-84.69-31.78-129.72c-0.18-2.44-1.02-4.82-1.56-7.23v-56.47
	c1.28-10.38,2.38-20.78,3.89-31.13c11.96-81.56,43.98-154.21,97.9-216.66c68.97-79.87,155.79-128.11,260.18-144.43
	c11.11-1.74,22.26-3.22,33.4-4.82H735.67z"/>
<path class="st0" d="M483.58,674.82h9.34c22.96,0,45.93-0.08,68.89,0.03c15.44,0.08,21.45,5.83,20.86,21.03
	c-0.52,13.21-1.1,26.6-3.49,39.55c-8.04,43.4-28.5,76.92-74.13,89.48c-2.06,0.56-5.02,3.22-5.07,4.96
	c-0.38,16.49-0.23,32.99-0.23,50.09c4.32-0.72,7.57-1.28,10.8-1.82c56.82-9.45,95.41-40.62,114.37-95.49
	c11.26-32.58,14.19-66.33,14.37-100.43c0.24-45.93,0.06-91.86,0.06-137.79v-8.38H483.58V674.82z M548.98,708.33
	c-21.41,0-41.32,0.03-61.22-0.02c-24.77-0.05-37.81-13.14-37.83-37.95c-0.02-43.75-0.03-87.48,0.02-131.23
	c0.03-23.93,12.8-36.96,36.82-37.03c49.56-0.15,99.11-0.15,148.67,0c24.35,0.06,37.08,13.18,37.06,37.66
	c-0.03,54.54,0.56,109.09-0.41,163.61c-0.69,38.38-7.52,75.81-23.99,111.01c-21.12,45.17-55.63,75.39-103.13,89.57
	c-18.88,5.63-38.88,7.84-58.53,10.39c-12.89,1.68-19.79-5.42-19.85-18.31c-0.12-27.4-0.11-54.81,0.02-82.21
	c0.03-10.93,5.31-17.55,15.98-18.66c41.76-4.38,57.56-31.59,63.74-65.37C547.55,723.06,548.02,716.19,548.98,708.33"/>
<path class="st0" d="M755.98,674.34c2.78,0.18,5.2,0.46,7.63,0.47c24.08,0.03,48.16-0.12,72.22,0.09
	c13.69,0.12,19.87,6.32,19.3,20.03c-0.56,13.49-1.08,27.15-3.49,40.39c-7.92,43.44-28.41,76.94-74.02,89.55
	c-2.09,0.58-5.14,3.16-5.17,4.87c-0.4,16.53-0.24,33.07-0.24,50.08c4.73-0.69,8.56-1.14,12.33-1.82c49.9-9,87.08-34.59,107.68-82.12
	c15.49-35.75,19.24-73.53,19.5-111.86c0.32-46.48,0.08-92.97,0.08-139.47v-8.54H755.98V674.34z M821.49,708.33
	c-21.41,0-41.32,0.03-61.22-0.02c-24.77-0.05-37.84-13.17-37.86-37.93c-0.02-44.02-0.03-88.04,0.02-132.05
	c0.02-22.48,12.77-36.03,35.16-36.16c50.66-0.31,101.33-0.29,151.99-0.02c22.45,0.12,35.39,13.58,35.39,35.93
	c0.03,54.26,0.44,108.54-0.32,162.78c-0.5,36.7-6.56,72.56-21.06,106.67c-25.22,59.37-71.18,91.87-133.36,103.32
	c-10.3,1.89-20.81,2.9-31.27,3.62c-12.99,0.89-19.84-5.63-19.9-18.45c-0.11-27.42-0.11-54.83,0-82.23
	c0.05-10.89,5.36-17.53,16.01-18.66c41.5-4.39,57.14-30.98,63.63-64.55C820.04,723.62,820.5,716.46,821.49,708.33"/>
<path class="st0" d="M994.64,436.08c-9.29-0.11-16.57-7.6-16.46-16.94c0.12-9.34,7.71-16.56,17.07-16.24
	c9.12,0.31,16.43,8.21,16.13,17.43C1011.07,429.3,1003.78,436.18,994.64,436.08"/>
</svg>
